HIERARCHY
ROOT Hips
{
	OFFSET 0.000000 0.000000 0.000000
	CHANNELS 6 Xposition Yposition Zposition Yrotation Xrotation Zrotation
	JOINT Chest
	{
		OFFSET 0.000000 -0.009281 11.569106
		CHANNELS 3 Yrotation Xrotation Zrotation
		JOINT Chest2
		{
			OFFSET -0.000000 0.016865 9.269641
			CHANNELS 3 Yrotation Xrotation Zrotation
			JOINT Chest3
			{
				OFFSET -0.000000 0.000001 8.374491
				CHANNELS 3 Yrotation Xrotation Zrotation
				JOINT Chest4
				{
					OFFSET -0.000000 0.000001 8.374493
					CHANNELS 3 Yrotation Xrotation Zrotation
					JOINT Neck
					{
						OFFSET -0.000000 0.000002 12.152554
						CHANNELS 3 Yrotation Xrotation Zrotation
						JOINT Head
						{
							OFFSET -0.000000 0.040101 7.802319
							CHANNELS 3 Yrotation Xrotation Zrotation
							End Site
							{
								OFFSET -0.000000 0.020947 14.853096
							}
						}
					}
					JOINT RightCollar
					{
						OFFSET 2.894404 0.000001 6.791374
						CHANNELS 3 Yrotation Xrotation Zrotation
						JOINT RightShoulder
						{
							OFFSET 13.574684 0.000001 0.000000
							CHANNELS 3 Yrotation Xrotation Zrotation
							JOINT RightElbow
							{
								OFFSET 23.923903 0.000002 0.000000
								CHANNELS 3 Yrotation Xrotation Zrotation
								JOINT RightWrist
								{
									OFFSET 19.846718 0.012767 0.000000
									CHANNELS 3 Yrotation Xrotation Zrotation
									End Site
									{
										OFFSET 14.973145 0.000001 0.000000
									}
								}
							}
						}
					}
					JOINT LeftCollar
					{
						OFFSET -2.894404 0.000001 6.791374
						CHANNELS 3 Yrotation Xrotation Zrotation
						JOINT LeftShoulder
						{
							OFFSET -13.574684 -0.000001 0.000000
							CHANNELS 3 Yrotation Xrotation Zrotation
							JOINT LeftElbow
							{
								OFFSET -23.923903 -0.000002 0.000000
								CHANNELS 3 Yrotation Xrotation Zrotation
								JOINT LeftWrist
								{
									OFFSET -19.846718 0.012763 0.000000
									CHANNELS 3 Yrotation Xrotation Zrotation
									End Site
									{
										OFFSET -14.973145 -0.000001 0.000000
									}
								}
							}
						}
					}
				}
			}
		}
	}
	JOINT RightHip
	{
		OFFSET 9.469263 0.004643 0.045487
		CHANNELS 3 Yrotation Xrotation Zrotation
		JOINT RightKnee
		{
			OFFSET 0.000000 0.002661 -40.478676
			CHANNELS 3 Yrotation Xrotation Zrotation
			JOINT RightAnkle
			{
				OFFSET 0.000000 0.049106 -35.224068
				CHANNELS 3 Yrotation Xrotation Zrotation
				JOINT RightToe
				{
					OFFSET -0.000001 12.539529 -6.151390
					CHANNELS 3 Yrotation Xrotation Zrotation
					End Site
					{
						OFFSET -0.000001 5.044994 -1.291870
					}
				}
			}
		}
	}
	JOINT LeftHip
	{
		OFFSET -9.469263 0.004641 0.045487
		CHANNELS 3 Yrotation Xrotation Zrotation
		JOINT LeftKnee
		{
			OFFSET 0.000000 0.002661 -40.478676
			CHANNELS 3 Yrotation Xrotation Zrotation
			JOINT LeftAnkle
			{
				OFFSET 0.000000 0.049106 -35.224068
				CHANNELS 3 Yrotation Xrotation Zrotation
				JOINT LeftToe
				{
					OFFSET -0.000001 12.539529 -6.151390
					CHANNELS 3 Yrotation Xrotation Zrotation
					End Site
					{
						OFFSET -0.000001 5.044994 -1.291870
					}
				}
			}
		}
	}
}
MOTION
Frames: 9
Frame Time: 0.016667
10.339686 3.869017 82.882385 -7.717751 -5.863897 -120.761938 -1.146343 -6.843432 -1.341919 -0.531720 -3.035057 -0.601888 -0.531721 -3.035058 -0.601896 -0.401690 -2.275775 -0.453956 1.334785 -25.162309 -3.627406 1.521854 -10.550057 -6.171530 1.185057 -1.465616 1.934496 63.624039 -29.843432 43.175289 -9.141444 -24.526482 -6.165283 -32.196552 14.200126 49.458028 -10.849507 -1.955204 -9.504347 -61.919018 -21.571095 -40.471675 -0.021068 -31.486161 -9.595693 47.383133 5.914607 -87.529400 0.410902 -8.062541 0.976856 0.104855 -9.014819 1.486413 1.477432 7.670513 6.496018 0.237144 0.067923 -0.021653 0.945969 -11.088507 3.896391 -0.139121 -7.138215 7.859206 0.018771 8.822853 -0.757696 0.027671 -0.021900 0.019930 
10.368761 3.883686 82.877296 -7.788125 -5.852120 -120.653311 -1.149831 -6.837155 -1.300006 -0.533374 -3.032113 -0.584347 -0.533374 -3.032113 -0.584352 -0.402841 -2.273581 -0.440804 1.226026 -25.178922 -3.213334 1.426507 -10.578115 -5.456586 1.276075 -1.435857 1.974578 63.903236 -30.018354 43.037247 -8.942287 -23.753960 -6.050684 -32.223108 14.255550 49.042199 -10.830958 -1.915601 -9.468859 -61.862533 -21.566377 -39.987503 0.800051 -30.798406 -8.416251 47.637209 5.360627 -87.313955 0.367994 -8.079832 0.962133 0.120651 -9.147274 1.471891 1.404179 7.751581 6.390291 0.242429 0.068466 -0.017981 0.902346 -11.140244 3.826849 -0.144024 -7.140611 7.824983 0.038759 8.832795 -0.742770 0.028970 -0.021249 0.017574 
10.398586 3.897180 82.873314 -7.864574 -5.840747 -120.540340 -1.150709 -6.822310 -1.257112 -0.533633 -3.026271 -0.566355 -0.533633 -3.026270 -0.566350 -0.402939 -2.269213 -0.427311 1.111239 -25.213529 -2.781891 1.324993 -10.640117 -4.712040 1.352518 -1.436623 2.005338 64.187194 -30.252236 42.918327 -8.721793 -22.763183 -5.936823 -32.306563 14.243621 48.474703 -10.800365 -1.971161 -9.419686 -61.717863 -21.504036 -39.583395 1.519655 -30.088909 -7.317318 47.767287 4.932416 -87.194530 0.319540 -8.108801 0.932376 0.139674 -9.269893 1.479657 1.331478 7.829193 6.283539 0.244270 0.068952 -0.013928 0.850288 -11.195390 3.749051 -0.135217 -7.146270 7.797463 0.051518 8.839366 -0.730444 0.028962 -0.017188 0.013910 
10.429267 3.910561 82.868546 -7.943432 -5.829834 -120.422683 -1.159243 -6.803141 -1.213181 -0.536379 -3.018331 -0.548172 -0.536379 -3.018332 -0.548172 -0.404902 -2.263272 -0.413686 0.997648 -25.260753 -2.339479 1.228265 -10.726006 -3.947643 1.437412 -1.452363 2.019128 64.477129 -30.513802 42.815191 -8.423280 -21.597036 -5.778646 -32.431463 14.171634 47.691130 -10.772308 -2.026751 -9.369455 -61.564470 -21.368032 -39.150668 2.176088 -29.471286 -6.273049 47.978186 4.581719 -87.084755 0.266488 -8.142095 0.892441 0.169198 -9.391494 1.493614 1.252820 7.911073 6.171704 0.245495 0.066851 -0.010862 0.798328 -11.252597 3.676356 -0.122376 -7.152787 7.760957 0.060916 8.847192 -0.734096 0.028966 -0.014679 0.009914 
10.457645 3.923050 82.862198 -8.025468 -5.818269 -120.301857 -1.162378 -6.777550 -1.173887 -0.536639 -3.007550 -0.532151 -0.536639 -3.007551 -0.532154 -0.405008 -2.255199 -0.401669 0.881468 -25.310577 -1.895869 1.126839 -10.817473 -3.181823 1.509784 -1.460568 2.039658 64.807546 -30.756065 42.667372 -8.021819 -20.191272 -5.530306 -32.610994 14.038222 46.763887 -10.780634 -2.056174 -9.325647 -61.395081 -21.231679 -38.662685 2.879686 -28.937418 -5.255576 48.204422 4.233648 -86.929081 0.206569 -8.173248 0.852638 0.210865 -9.522068 1.493685 1.168823 7.999554 6.083655 0.247351 0.063249 -0.007432 0.743909 -11.315842 3.620786 -0.105436 -7.149272 7.695858 0.072279 8.851911 -0.719121 0.028209 -0.015972 0.006243 
10.484618 3.937463 82.854607 -8.100957 -5.794873 -120.181864 -1.160661 -6.754442 -1.126128 -0.533493 -2.998346 -0.513256 -0.533493 -2.998346 -0.513257 -0.402549 -2.248315 -0.387475 0.767280 -25.346521 -1.464245 1.025495 -10.883819 -2.437002 1.564145 -1.436379 2.065950 65.158823 -30.936963 42.453550 -7.489510 -18.477692 -5.158218 -32.889526 13.952451 45.781481 -10.807266 -2.025878 -9.283454 -61.192027 -21.193457 -38.160800 3.623692 -28.383194 -4.227841 48.505521 3.681531 -86.617652 0.138934 -8.190981 0.820740 0.253556 -9.656992 1.478771 1.089036 8.083571 6.000639 0.247150 0.067270 -0.003074 0.685143 -11.364827 3.587080 -0.087109 -7.142459 7.617662 0.084157 8.847931 -0.709793 0.025747 -0.015112 0.002299 
10.510753 3.949269 82.847359 -8.177133 -5.776357 -120.054891 -1.145999 -6.748669 -1.070657 -0.526465 -2.995627 -0.489702 -0.526465 -2.995627 -0.489696 -0.397161 -2.246302 -0.369779 0.655704 -25.369286 -1.041332 0.926307 -10.926279 -1.707145 1.612795 -1.410128 2.118373 65.550350 -31.064800 42.205989 -6.873712 -16.478461 -4.685202 -33.340684 14.069243 44.675342 -10.834404 -1.940891 -9.232435 -60.977340 -21.171256 -37.658637 4.312526 -27.802529 -3.223618 48.909175 2.968314 -86.195894 0.085965 -8.209164 0.791218 0.294232 -9.795014 1.455185 1.009916 8.176466 5.885172 0.242935 0.063059 0.001208 0.629874 -11.426970 3.553453 -0.071144 -7.123637 7.548712 0.097788 8.847527 -0.709683 0.023872 -0.018889 -0.000713 
10.534665 3.956339 82.841553 -8.252699 -5.758503 -119.922617 -1.136143 -6.755481 -1.003352 -0.521781 -2.998805 -0.461575 -0.521781 -2.998805 -0.461577 -0.393513 -2.248714 -0.348664 0.552580 -25.385392 -0.617009 0.842337 -10.956934 -0.972764 1.688876 -1.351191 2.168179 65.994708 -31.175251 41.922359 -6.176748 -14.231974 -4.114272 -33.972439 14.382020 43.406532 -10.823435 -1.896767 -9.192824 -60.840197 -20.990841 -37.176440 4.927354 -27.291602 -2.282592 49.347379 2.349792 -85.748934 0.037455 -8.232301 0.787088 0.336998 -9.923505 1.405780 0.935676 8.262317 5.797277 0.236181 0.061647 0.007310 0.582387 -11.492617 3.513846 -0.059663 -7.097915 7.502651 0.104749 8.844152 -0.731145 0.023810 -0.022927 -0.005050 
10.556960 3.957092 82.836784 -8.324453 -5.743062 -119.780030 -1.140545 -6.759747 -0.926506 -0.524130 -2.999831 -0.429318 -0.524130 -2.999831 -0.429316 -0.395118 -2.249508 -0.324484 0.466571 -25.406816 -0.189395 0.789596 -10.998184 -0.228528 1.812352 -1.272135 2.185382 66.528686 -31.249143 41.560530 -5.330962 -11.835370 -3.376085 -34.819724 14.758668 41.983400 -10.772235 -1.927374 -9.183454 -60.590417 -20.731330 -36.760532 5.445057 -26.789930 -1.414194 49.659573 1.917150 -85.306727 -0.008397 -8.261161 0.772785 0.381523 -10.045914 1.353972 0.869072 8.355268 5.731494 0.227390 0.054463 0.015474 0.552917 -11.554567 3.459425 -0.052709 -7.074403 7.462892 0.101555 8.844276 -0.759463 0.024995 -0.031087 -0.012012 
